<?xml version="1.0" standalone="no"?>
<!DOCTYPE svg PUBLIC "-//W3C//DTD SVG 20010904//EN"
 "http://www.w3.org/TR/2001/REC-SVG-20010904/DTD/svg10.dtd">
<svg version="1.0" xmlns="http://www.w3.org/2000/svg"
 width="455.000000pt" height="455.000000pt" viewBox="0 0 455.000000 455.000000"
 preserveAspectRatio="xMidYMid meet">
<metadata>
Created by potrace 1.11, written by Peter Selinger 2001-2013
</metadata>
<g transform="translate(0.000000,455.000000) scale(0.100000,-0.100000)"
fill="#000000" stroke="none">
<path d="M2085 4543 c-800 -70 -1500 -545 -1849 -1256 -108 -220 -172 -421
-213 -672 -25 -154 -25 -504 1 -665 100 -640 451 -1191 989 -1553 192 -130
469 -252 707 -312 201 -51 278 -59 550 -59 273 0 349 8 555 60 153 38 267 80
420 153 234 112 409 232 589 402 715 677 910 1752 477 2634 -351 714 -1038
1190 -1827 1265 -102 9 -308 11 -399 3z m-649 -868 c62 -18 116 -63 143 -118
21 -43 21 -46 21 -1295 0 -1382 4 -1290 -63 -1361 -55 -58 -96 -71 -230 -71
-77 0 -129 5 -150 13 -52 22 -98 68 -123 122 l-24 50 0 1235 c0 840 4 1247 11
1273 18 65 92 134 169 158 44 13 194 10 246 -6z m884 -9 c87 -45 57 10 519
-955 l160 -335 3 570 c3 624 0 587 64 663 52 62 94 76 235 76 122 0 127 -1
174 -30 27 -17 63 -50 80 -74 l30 -43 3 -1261 c2 -835 -1 -1274 -7 -1297 -14
-48 -64 -106 -114 -133 -37 -19 -57 -22 -172 -22 -124 0 -132 1 -178 28 -26
15 -58 45 -71 65 -14 20 -150 300 -303 621 l-278 583 -5 -563 c-5 -558 -5
-564 -27 -605 -33 -61 -96 -111 -158 -125 -29 -6 -93 -10 -146 -7 -107 5 -158
25 -204 80 -58 69 -55 -7 -55 1355 0 1254 0 1257 21 1300 26 53 80 99 139 118
65 21 243 15 290 -9z"/>
</g>
</svg>
